<svg width="20" height="18" viewBox="0 0 20 18" fill="none" xmlns="http://www.w3.org/2000/svg">
<path d="M17.4912 16.91L16.3884 4.95122C16.3583 4.62463 16.0772 4.37448 15.7405 4.37448H13.4663V3.37572C13.4663 1.51435 11.9112 0 9.99974 0C8.08833 0 6.5334 1.51435 6.5334 3.37572V4.37448H4.25763C3.92093 4.37448 3.63983 4.62463 3.60974 4.95122L2.5026 16.9571C2.4863 17.1343 2.54718 17.3098 2.67043 17.4411C2.79367 17.5723 2.96792 17.6471 3.15049 17.6471H16.8478C16.8483 17.6471 16.849 17.6471 16.8495 17.6471C17.2088 17.6471 17.5 17.3635 17.5 17.0137C17.4999 16.9784 17.497 16.9437 17.4912 16.91ZM7.83438 3.37572C7.83438 2.21287 8.80578 1.26681 9.99983 1.26681C11.194 1.26681 12.1654 2.21287 12.1654 3.37572V4.37448H7.83438V3.37572ZM3.86204 16.3803L4.85235 5.64129H6.5334V6.77399C6.5334 7.1238 6.82456 7.4074 7.18389 7.4074C7.54322 7.4074 7.83438 7.1238 7.83438 6.77399V5.64129H12.1654V6.77399C12.1654 7.1238 12.4566 7.4074 12.8159 7.4074C13.1753 7.4074 13.4664 7.1238 13.4664 6.77399V5.64129H15.1459L16.1362 16.3803H3.86204V16.3803Z" fill="#333333"/>
</svg>
