<svg width="22" height="20" viewBox="0 0 22 20" fill="none" xmlns="http://www.w3.org/2000/svg">
<path fill-rule="evenodd" clip-rule="evenodd" d="M10.9997 5.77651L10.1914 4.69221C9.36417 3.5826 8.03339 2.8638 6.52983 2.8638C5.18287 2.8638 4.06318 3.23548 3.29146 3.91883C2.53631 4.58752 2 5.65526 2 7.28849C2 8.28845 2.49347 9.45231 3.38375 10.7042C4.2619 11.939 5.45224 13.1567 6.67319 14.2428C7.88963 15.3249 9.11032 16.2534 10.0292 16.9125C10.4103 17.1859 10.7382 17.412 10.9904 17.5824C11.2441 17.4056 11.5749 17.1707 11.96 16.8869C12.8803 16.2086 14.1031 15.257 15.3217 14.1586C16.545 13.0561 17.7381 11.8289 18.6184 10.6015C19.5143 9.35238 20 8.22137 20 7.28854C20 4.84533 17.9716 2.8638 15.4696 2.8638C13.9665 2.8638 12.6354 3.5826 11.8081 4.69226L10.9997 5.77651ZM10.326 3.36792C9.33619 2.45121 8.00171 1.887 6.52983 1.887C3.47625 1.887 1 3.57488 1 7.28849C1 12.4547 10.9997 18.7668 10.9997 18.7668C10.9997 18.7668 21 12.2187 21 7.28854C21 4.3058 18.5238 1.887 15.4696 1.887C13.9981 1.887 12.6635 2.45123 11.6735 3.36796C11.4264 3.59684 11.2007 3.84769 10.9997 4.11721C10.7988 3.84767 10.5732 3.59681 10.326 3.36792Z" fill="red"/>
<path d="M10.9997 18.7668L10.7329 19.1896L11.0047 19.3612L11.2737 19.1851L10.9997 18.7668ZM10.9997 18.7668C11.2737 19.1851 11.2738 19.185 11.2739 19.1849L11.2744 19.1846L11.276 19.1835L11.282 19.1796L11.3047 19.1646C11.3244 19.1516 11.3533 19.1324 11.3907 19.1072C11.4656 19.0569 11.5748 18.983 11.7134 18.8873C11.9905 18.6961 12.3855 18.4181 12.8589 18.0691C13.805 17.3719 15.0688 16.3888 16.3346 15.2479C17.5981 14.1091 18.877 12.8013 19.8438 11.4533C20.8021 10.1171 21.5 8.67804 21.5 7.28854C21.5 4.01863 18.7888 1.387 15.4696 1.387C13.868 1.387 12.4131 2.00162 11.3338 3.0011C11.2181 3.10828 11.1066 3.21989 10.9998 3.33567C10.8929 3.21989 10.7815 3.10826 10.6658 3.00108C9.58656 2.0016 8.13179 1.387 6.52983 1.387C4.91602 1.387 3.4038 1.83308 2.28835 2.82081C1.1631 3.81721 0.5 5.31341 0.5 7.28849C0.5 8.7328 1.19377 10.1996 2.15499 11.5513C3.12277 12.9121 4.40306 14.2137 5.66756 15.3386C6.93441 16.4655 8.19908 17.427 9.14585 18.1061C9.61966 18.446 10.0149 18.7159 10.2923 18.9012C10.431 18.9939 10.5404 19.0655 10.6154 19.1142C10.6529 19.1385 10.6819 19.1571 10.7017 19.1698L10.7244 19.1842L10.7304 19.1881L10.7321 19.1891L10.7326 19.1894C10.7327 19.1895 10.7329 19.1896 10.9997 18.7668ZM10.5988 6.07535L10.9997 6.61303L11.4005 6.07537L12.2089 4.99113C12.9449 4.004 14.1294 3.3638 15.4696 3.3638C17.7066 3.3638 19.5 5.1325 19.5 7.28854C19.5 8.06437 19.0872 9.09001 18.2121 10.3101C17.3611 11.4967 16.1968 12.6968 14.987 13.7872C13.7841 14.8713 12.5751 15.8125 11.6634 16.4844C11.412 16.6696 11.184 16.8338 10.9861 16.9742C10.7911 16.8399 10.5672 16.6831 10.3206 16.5062C9.41106 15.8538 8.20507 14.9363 7.00551 13.8692C5.79908 12.796 4.63906 11.6067 3.79122 10.4144C2.92469 9.19593 2.5 8.13571 2.5 7.28849C2.5 5.77395 2.99199 4.85186 3.62293 4.29317C4.28016 3.71119 5.27023 3.3638 6.52983 3.3638C7.87053 3.3638 9.05466 4.00399 9.7905 4.99105L10.5988 6.07535Z" stroke="red" stroke-opacity="0.5"/>
</svg>