<svg width="35" height="35" viewBox="0 0 35 35" fill="none" xmlns="http://www.w3.org/2000/svg">
<g opacity="0.25">
<rect x="0.75" y="1.02609" width="33.5" height="32.688" rx="16.344" fill="white"/>
<path d="M23.843 12.7579C23.8801 12.33 23.5633 11.953 23.1353 11.9158L16.1615 11.311C15.7336 11.2738 15.3566 11.5907 15.3194 12.0186C15.2823 12.4466 15.5992 12.8236 16.0271 12.8607L22.226 13.3984L21.6884 19.5973C21.6513 20.0253 21.9681 20.4023 22.396 20.4394C22.824 20.4765 23.201 20.1597 23.2381 19.7317L23.843 12.7579ZM12.4322 22.6449L23.5685 13.2861L22.5677 12.0953L11.4314 21.454L12.4322 22.6449Z" fill="#333333"/>
<rect x="0.75" y="1.02609" width="33.5" height="32.688" rx="16.344" stroke="#333333" stroke-width="1.5"/>
</g>
</svg>
